<svg xmlns="http://www.w3.org/2000/svg" xmlns:xlink="http://www.w3.org/1999/xlink" width="576" height="288" version="1.1" viewBox="0 0 432 216"><metadata><rdf:RDF xmlns:cc="http://creativecommons.org/ns#" xmlns:dc="http://purl.org/dc/elements/1.1/" xmlns:rdf="http://www.w3.org/1999/02/22-rdf-syntax-ns#"><cc:Work><dc:type rdf:resource="http://purl.org/dc/dcmitype/StillImage"/><dc:date>2022-08-26T18:05:27.658483</dc:date><dc:format>image/svg+xml</dc:format><dc:creator><cc:Agent><dc:title>Matplotlib v3.3.2, https://matplotlib.org/</dc:title></cc:Agent></dc:creator></cc:Work></rdf:RDF></metadata><defs><style type="text/css">*{stroke-linecap:butt;stroke-linejoin:round}</style></defs><g id="figure_1"><g id="patch_1"><path d="M 0 216 L 432 216 L 432 0 L 0 0 z" style="fill:#fff"/></g><g id="axes_1"><g id="patch_2"><path d="M 79.746 149.124 L 396.549 149.124 L 396.549 20.736 L 79.746 20.736 z" style="fill:#fff"/></g><g id="matplotlib.axis_1"><g id="xtick_1"><g id="line2d_1"><defs><path id="mb66829c06d" d="M 0 0 L 0 4.8" style="stroke:#262626"/></defs><g><use style="fill:#262626;stroke:#262626" x="93.23" y="149.124" xlink:href="#mb66829c06d"/></g></g><g id="text_1"><g style="fill:#262626" transform="translate(88.336065 170.02175)scale(0.176 -0.176)"><defs><path id="ArialMT-49" d="M 37.25 0 L 28.46875 0 L 28.46875 56 Q 25.296875 52.984375 20.140625 49.953125 Q 14.984375 46.921875 10.890625 45.40625 L 10.890625 53.90625 Q 18.265625 57.375 23.78125 62.296875 Q 29.296875 67.234375 31.59375 71.875 L 37.25 71.875 z"/></defs><use xlink:href="#ArialMT-49"/></g></g></g><g id="xtick_2"><g id="line2d_2"><g><use style="fill:#262626;stroke:#262626" x="244.889" y="149.124" xlink:href="#mb66829c06d"/></g></g><g id="text_2"><g style="fill:#262626" transform="translate(235.102095 170.02175)scale(0.176 -0.176)"><defs><path id="ArialMT-48" d="M 4.15625 35.296875 Q 4.15625 48 6.765625 55.734375 Q 9.375 63.484375 14.515625 67.671875 Q 19.671875 71.875 27.484375 71.875 Q 33.25 71.875 37.59375 69.546875 Q 41.9375 67.234375 44.765625 62.859375 Q 47.609375 58.5 49.21875 52.21875 Q 50.828125 45.953125 50.828125 35.296875 Q 50.828125 22.703125 48.234375 14.96875 Q 45.65625 7.234375 40.5 3 Q 35.359375 -1.21875 27.484375 -1.21875 Q 17.140625 -1.21875 11.234375 6.203125 Q 4.15625 15.140625 4.15625 35.296875 z M 13.1875 35.296875 Q 13.1875 17.671875 17.3125 11.828125 Q 21.4375 6 27.484375 6 Q 33.546875 6 37.671875 11.859375 Q 41.796875 17.71875 41.796875 35.296875 Q 41.796875 52.984375 37.671875 58.78125 Q 33.546875 64.59375 27.390625 64.59375 Q 21.34375 64.59375 17.71875 59.46875 Q 13.1875 52.9375 13.1875 35.296875 z"/></defs><use xlink:href="#ArialMT-49"/><use x="55.615" xlink:href="#ArialMT-48"/></g></g></g><g id="xtick_3"><g id="line2d_3"><g><use style="fill:#262626;stroke:#262626" x="396.549" y="149.124" xlink:href="#mb66829c06d"/></g></g><g id="text_3"><g style="fill:#262626" transform="translate(381.868125 170.02175)scale(0.176 -0.176)"><use xlink:href="#ArialMT-49"/><use x="55.615" xlink:href="#ArialMT-48"/><use x="111.23" xlink:href="#ArialMT-48"/></g></g></g><g id="text_4"><g style="fill:#262626" transform="translate(131.6085 191.49675)scale(0.192 -0.192)"><defs><path id="ArialMT-108" d="M 6.390625 0 L 6.390625 71.578125 L 15.1875 71.578125 L 15.1875 0 z"/><path id="ArialMT-111" d="M 3.328125 25.921875 Q 3.328125 40.328125 11.328125 47.265625 Q 18.015625 53.03125 27.640625 53.03125 Q 38.328125 53.03125 45.109375 46.015625 Q 51.90625 39.015625 51.90625 26.65625 Q 51.90625 16.65625 48.90625 10.90625 Q 45.90625 5.171875 40.15625 2 Q 34.421875 -1.171875 27.640625 -1.171875 Q 16.75 -1.171875 10.03125 5.8125 Q 3.328125 12.796875 3.328125 25.921875 z M 12.359375 25.921875 Q 12.359375 15.96875 16.703125 11.015625 Q 21.046875 6.0625 27.640625 6.0625 Q 34.1875 6.0625 38.53125 11.03125 Q 42.875 16.015625 42.875 26.21875 Q 42.875 35.84375 38.5 40.796875 Q 34.125 45.75 27.640625 45.75 Q 21.046875 45.75 16.703125 40.8125 Q 12.359375 35.890625 12.359375 25.921875 z"/><path id="ArialMT-103" d="M 4.984375 -4.296875 L 13.53125 -5.5625 Q 14.0625 -9.515625 16.5 -11.328125 Q 19.78125 -13.765625 25.4375 -13.765625 Q 31.546875 -13.765625 34.859375 -11.328125 Q 38.1875 -8.890625 39.359375 -4.5 Q 40.046875 -1.8125 39.984375 6.78125 Q 34.234375 0 25.640625 0 Q 14.9375 0 9.078125 7.71875 Q 3.21875 15.4375 3.21875 26.21875 Q 3.21875 33.640625 5.90625 39.90625 Q 8.59375 46.1875 13.6875 49.609375 Q 18.796875 53.03125 25.6875 53.03125 Q 34.859375 53.03125 40.828125 45.609375 L 40.828125 51.859375 L 48.921875 51.859375 L 48.921875 7.03125 Q 48.921875 -5.078125 46.453125 -10.125 Q 44 -15.1875 38.640625 -18.109375 Q 33.296875 -21.046875 25.484375 -21.046875 Q 16.21875 -21.046875 10.5 -16.875 Q 4.78125 -12.703125 4.984375 -4.296875 z M 12.25 26.859375 Q 12.25 16.65625 16.296875 11.96875 Q 20.359375 7.28125 26.46875 7.28125 Q 32.515625 7.28125 36.609375 11.9375 Q 40.71875 16.609375 40.71875 26.5625 Q 40.71875 36.078125 36.5 40.90625 Q 32.28125 45.75 26.3125 45.75 Q 20.453125 45.75 16.34375 40.984375 Q 12.25 36.234375 12.25 26.859375 z"/><path id="ArialMT-40" d="M 23.390625 -21.046875 Q 16.109375 -11.859375 11.078125 0.4375 Q 6.0625 12.75 6.0625 25.921875 Q 6.0625 37.546875 9.8125 48.1875 Q 14.203125 60.546875 23.390625 72.796875 L 29.6875 72.796875 Q 23.78125 62.640625 21.875 58.296875 Q 18.890625 51.5625 17.1875 44.234375 Q 15.09375 35.109375 15.09375 25.875 Q 15.09375 2.390625 29.6875 -21.046875 z"/><path id="ArialMT-110" d="M 6.59375 0 L 6.59375 51.859375 L 14.5 51.859375 L 14.5 44.484375 Q 20.21875 53.03125 31 53.03125 Q 35.6875 53.03125 39.625 51.34375 Q 43.5625 49.65625 45.515625 46.921875 Q 47.46875 44.1875 48.25 40.4375 Q 48.734375 37.984375 48.734375 31.890625 L 48.734375 0 L 39.9375 0 L 39.9375 31.546875 Q 39.9375 36.921875 38.90625 39.578125 Q 37.890625 42.234375 35.28125 43.8125 Q 32.671875 45.40625 29.15625 45.40625 Q 23.53125 45.40625 19.453125 41.84375 Q 15.375 38.28125 15.375 28.328125 L 15.375 0 z"/><path id="ArialMT-117" d="M 40.578125 0 L 40.578125 7.625 Q 34.515625 -1.171875 24.125 -1.171875 Q 19.53125 -1.171875 15.546875 0.578125 Q 11.578125 2.34375 9.640625 5 Q 7.71875 7.671875 6.9375 11.53125 Q 6.390625 14.109375 6.390625 19.734375 L 6.390625 51.859375 L 15.1875 51.859375 L 15.1875 23.09375 Q 15.1875 16.21875 15.71875 13.8125 Q 16.546875 10.359375 19.234375 8.375 Q 21.921875 6.390625 25.875 6.390625 Q 29.828125 6.390625 33.296875 8.421875 Q 36.765625 10.453125 38.203125 13.9375 Q 39.65625 17.4375 39.65625 24.078125 L 39.65625 51.859375 L 48.4375 51.859375 L 48.4375 0 z"/><path id="ArialMT-109" d="M 6.59375 0 L 6.59375 51.859375 L 14.453125 51.859375 L 14.453125 44.578125 Q 16.890625 48.390625 20.9375 50.703125 Q 25 53.03125 30.171875 53.03125 Q 35.9375 53.03125 39.625 50.640625 Q 43.3125 48.25 44.828125 43.953125 Q 50.984375 53.03125 60.84375 53.03125 Q 68.5625 53.03125 72.703125 48.75 Q 76.859375 44.484375 76.859375 35.59375 L 76.859375 0 L 68.109375 0 L 68.109375 32.671875 Q 68.109375 37.9375 67.25 40.25 Q 66.40625 42.578125 64.15625 43.984375 Q 61.921875 45.40625 58.890625 45.40625 Q 53.421875 45.40625 49.796875 41.765625 Q 46.1875 38.140625 46.1875 30.125 L 46.1875 0 L 37.40625 0 L 37.40625 33.6875 Q 37.40625 39.546875 35.25 42.46875 Q 33.109375 45.40625 28.21875 45.40625 Q 24.515625 45.40625 21.359375 43.453125 Q 18.21875 41.5 16.796875 37.734375 Q 15.375 33.984375 15.375 26.90625 L 15.375 0 z"/><path id="ArialMT-98" d="M 14.703125 0 L 6.546875 0 L 6.546875 71.578125 L 15.328125 71.578125 L 15.328125 46.046875 Q 20.90625 53.03125 29.546875 53.03125 Q 34.328125 53.03125 38.59375 51.09375 Q 42.875 49.171875 45.625 45.671875 Q 48.390625 42.1875 49.953125 37.25 Q 51.515625 32.328125 51.515625 26.703125 Q 51.515625 13.375 44.921875 6.09375 Q 38.328125 -1.171875 29.109375 -1.171875 Q 19.921875 -1.171875 14.703125 6.5 z M 14.59375 26.3125 Q 14.59375 17 17.140625 12.84375 Q 21.296875 6.0625 28.375 6.0625 Q 34.125 6.0625 38.328125 11.0625 Q 42.53125 16.0625 42.53125 25.984375 Q 42.53125 36.140625 38.5 40.96875 Q 34.46875 45.796875 28.765625 45.796875 Q 23 45.796875 18.796875 40.796875 Q 14.59375 35.796875 14.59375 26.3125 z"/><path id="ArialMT-101" d="M 42.09375 16.703125 L 51.171875 15.578125 Q 49.03125 7.625 43.21875 3.21875 Q 37.40625 -1.171875 28.375 -1.171875 Q 17 -1.171875 10.328125 5.828125 Q 3.65625 12.84375 3.65625 25.484375 Q 3.65625 38.578125 10.390625 45.796875 Q 17.140625 53.03125 27.875 53.03125 Q 38.28125 53.03125 44.875 45.953125 Q 51.46875 38.875 51.46875 26.03125 Q 51.46875 25.25 51.421875 23.6875 L 12.75 23.6875 Q 13.234375 15.140625 17.578125 10.59375 Q 21.921875 6.0625 28.421875 6.0625 Q 33.25 6.0625 36.671875 8.59375 Q 40.09375 11.140625 42.09375 16.703125 z M 13.234375 30.90625 L 42.1875 30.90625 Q 41.609375 37.453125 38.875 40.71875 Q 34.671875 45.796875 27.984375 45.796875 Q 21.921875 45.796875 17.796875 41.75 Q 13.671875 37.703125 13.234375 30.90625 z"/><path id="ArialMT-114" d="M 6.5 0 L 6.5 51.859375 L 14.40625 51.859375 L 14.40625 44 Q 17.4375 49.515625 20 51.265625 Q 22.5625 53.03125 25.640625 53.03125 Q 30.078125 53.03125 34.671875 50.203125 L 31.640625 42.046875 Q 28.421875 43.953125 25.203125 43.953125 Q 22.3125 43.953125 20.015625 42.21875 Q 17.71875 40.484375 16.75 37.40625 Q 15.28125 32.71875 15.28125 27.15625 L 15.28125 0 z"/><path id="ArialMT-32"/><path id="ArialMT-102" d="M 8.6875 0 L 8.6875 45.015625 L 0.921875 45.015625 L 0.921875 51.859375 L 8.6875 51.859375 L 8.6875 57.375 Q 8.6875 62.59375 9.625 65.140625 Q 10.890625 68.5625 14.078125 70.671875 Q 17.28125 72.796875 23.046875 72.796875 Q 26.765625 72.796875 31.25 71.921875 L 29.9375 64.265625 Q 27.203125 64.75 24.75 64.75 Q 20.75 64.75 19.09375 63.03125 Q 17.4375 61.328125 17.4375 56.640625 L 17.4375 51.859375 L 27.546875 51.859375 L 27.546875 45.015625 L 17.4375 45.015625 L 17.4375 0 z"/><path id="ArialMT-115" d="M 3.078125 15.484375 L 11.765625 16.84375 Q 12.5 11.625 15.84375 8.84375 Q 19.1875 6.0625 25.203125 6.0625 Q 31.25 6.0625 34.171875 8.515625 Q 37.109375 10.984375 37.109375 14.3125 Q 37.109375 17.28125 34.515625 19 Q 32.71875 20.171875 25.53125 21.96875 Q 15.875 24.421875 12.140625 26.203125 Q 8.40625 27.984375 6.46875 31.125 Q 4.546875 34.28125 4.546875 38.09375 Q 4.546875 41.546875 6.125 44.5 Q 7.71875 47.46875 10.453125 49.421875 Q 12.5 50.921875 16.03125 51.96875 Q 19.578125 53.03125 23.640625 53.03125 Q 29.734375 53.03125 34.34375 51.265625 Q 38.96875 49.515625 41.15625 46.5 Q 43.359375 43.5 44.1875 38.484375 L 35.59375 37.3125 Q 35.015625 41.3125 32.203125 43.546875 Q 29.390625 45.796875 24.265625 45.796875 Q 18.21875 45.796875 15.625 43.796875 Q 13.03125 41.796875 13.03125 39.109375 Q 13.03125 37.40625 14.109375 36.03125 Q 15.1875 34.625 17.484375 33.6875 Q 18.796875 33.203125 25.25 31.453125 Q 34.578125 28.953125 38.25 27.359375 Q 41.9375 25.78125 44.03125 22.75 Q 46.140625 19.734375 46.140625 15.234375 Q 46.140625 10.84375 43.578125 6.953125 Q 41.015625 3.078125 36.171875 0.953125 Q 31.34375 -1.171875 25.25 -1.171875 Q 15.140625 -1.171875 9.84375 3.03125 Q 4.546875 7.234375 3.078125 15.484375 z"/><path id="ArialMT-112" d="M 6.59375 -19.875 L 6.59375 51.859375 L 14.59375 51.859375 L 14.59375 45.125 Q 17.4375 49.078125 21 51.046875 Q 24.5625 53.03125 29.640625 53.03125 Q 36.28125 53.03125 41.359375 49.609375 Q 46.4375 46.1875 49.015625 39.953125 Q 51.609375 33.734375 51.609375 26.3125 Q 51.609375 18.359375 48.75 11.984375 Q 45.90625 5.609375 40.453125 2.21875 Q 35.015625 -1.171875 29 -1.171875 Q 24.609375 -1.171875 21.109375 0.6875 Q 17.625 2.546875 15.375 5.375 L 15.375 -19.875 z M 14.546875 25.640625 Q 14.546875 15.625 18.59375 10.84375 Q 22.65625 6.0625 28.421875 6.0625 Q 34.28125 6.0625 38.453125 11.015625 Q 42.625 15.96875 42.625 26.375 Q 42.625 36.28125 38.546875 41.203125 Q 34.46875 46.140625 28.8125 46.140625 Q 23.1875 46.140625 18.859375 40.890625 Q 14.546875 35.640625 14.546875 25.640625 z"/><path id="ArialMT-105" d="M 6.640625 61.46875 L 6.640625 71.578125 L 15.4375 71.578125 L 15.4375 61.46875 z M 6.640625 0 L 6.640625 51.859375 L 15.4375 51.859375 L 15.4375 0 z"/><path id="ArialMT-41" d="M 12.359375 -21.046875 L 6.0625 -21.046875 Q 20.65625 2.390625 20.65625 25.875 Q 20.65625 35.0625 18.5625 44.09375 Q 16.890625 51.421875 13.921875 58.15625 Q 12.015625 62.546875 6.0625 72.796875 L 12.359375 72.796875 Q 21.53125 60.546875 25.921875 48.1875 Q 29.6875 37.546875 29.6875 25.921875 Q 29.6875 12.75 24.625 0.4375 Q 19.578125 -11.859375 12.359375 -21.046875 z"/></defs><use xlink:href="#ArialMT-108"/><use x="22.217" xlink:href="#ArialMT-111"/><use x="77.832" xlink:href="#ArialMT-103"/><use x="133.447" xlink:href="#ArialMT-40"/><use x="166.748" xlink:href="#ArialMT-110"/><use x="222.363" xlink:href="#ArialMT-117"/><use x="277.979" xlink:href="#ArialMT-109"/><use x="361.279" xlink:href="#ArialMT-98"/><use x="416.895" xlink:href="#ArialMT-101"/><use x="472.51" xlink:href="#ArialMT-114"/><use x="505.811" xlink:href="#ArialMT-32"/><use x="533.594" xlink:href="#ArialMT-111"/><use x="589.209" xlink:href="#ArialMT-102"/><use x="616.992" xlink:href="#ArialMT-32"/><use x="644.775" xlink:href="#ArialMT-111"/><use x="700.391" xlink:href="#ArialMT-102"/><use x="726.424" xlink:href="#ArialMT-102"/><use x="754.207" xlink:href="#ArialMT-115"/><use x="804.207" xlink:href="#ArialMT-112"/><use x="859.822" xlink:href="#ArialMT-114"/><use x="893.123" xlink:href="#ArialMT-105"/><use x="915.34" xlink:href="#ArialMT-110"/><use x="970.955" xlink:href="#ArialMT-103"/><use x="1026.57" xlink:href="#ArialMT-115"/><use x="1076.57" xlink:href="#ArialMT-41"/></g></g></g><g id="matplotlib.axis_2"><g id="ytick_1"><g id="line2d_4"><defs><path id="mf2e0d7eda0" d="M 0 0 L -4.8 0" style="stroke:#262626"/></defs><g><use style="fill:#262626;stroke:#262626" x="79.746" y="149.124" xlink:href="#mf2e0d7eda0"/></g></g><g id="text_5"><g style="fill:#262626" transform="translate(61.65875 155.422875)scale(0.176 -0.176)"><use xlink:href="#ArialMT-48"/></g></g></g><g id="ytick_2"><g id="line2d_5"><g><use style="fill:#262626;stroke:#262626" x="79.746" y="95.179" xlink:href="#mf2e0d7eda0"/></g></g><g id="text_6"><g style="fill:#262626" transform="translate(51.8715 101.478337)scale(0.176 -0.176)"><defs><path id="ArialMT-53" d="M 4.15625 18.75 L 13.375 19.53125 Q 14.40625 12.796875 18.140625 9.390625 Q 21.875 6 27.15625 6 Q 33.5 6 37.890625 10.78125 Q 42.28125 15.578125 42.28125 23.484375 Q 42.28125 31 38.0625 35.34375 Q 33.84375 39.703125 27 39.703125 Q 22.75 39.703125 19.328125 37.765625 Q 15.921875 35.84375 13.96875 32.765625 L 5.71875 33.84375 L 12.640625 70.609375 L 48.25 70.609375 L 48.25 62.203125 L 19.671875 62.203125 L 15.828125 42.96875 Q 22.265625 47.46875 29.34375 47.46875 Q 38.71875 47.46875 45.15625 40.96875 Q 51.609375 34.46875 51.609375 24.265625 Q 51.609375 14.546875 45.953125 7.46875 Q 39.0625 -1.21875 27.15625 -1.21875 Q 17.390625 -1.21875 11.203125 4.25 Q 5.03125 9.71875 4.15625 18.75 z"/></defs><use xlink:href="#ArialMT-53"/><use x="55.615" xlink:href="#ArialMT-48"/></g></g></g><g id="ytick_3"><g id="line2d_6"><g><use style="fill:#262626;stroke:#262626" x="79.746" y="41.235" xlink:href="#mf2e0d7eda0"/></g></g><g id="text_7"><g style="fill:#262626" transform="translate(42.08425 47.533799)scale(0.176 -0.176)"><use xlink:href="#ArialMT-49"/><use x="55.615" xlink:href="#ArialMT-48"/><use x="111.23" xlink:href="#ArialMT-48"/></g></g></g><g id="text_8"><g style="fill:#262626" transform="translate(34.04325 179.907)rotate(-90)scale(0.192 -0.192)"><defs><path id="ArialMT-73" d="M 9.328125 0 L 9.328125 71.578125 L 18.796875 71.578125 L 18.796875 0 z"/><path id="ArialMT-100" d="M 40.234375 0 L 40.234375 6.546875 Q 35.296875 -1.171875 25.734375 -1.171875 Q 19.53125 -1.171875 14.328125 2.25 Q 9.125 5.671875 6.265625 11.796875 Q 3.421875 17.921875 3.421875 25.875 Q 3.421875 33.640625 6 39.96875 Q 8.59375 46.296875 13.765625 49.65625 Q 18.953125 53.03125 25.34375 53.03125 Q 30.03125 53.03125 33.6875 51.046875 Q 37.359375 49.078125 39.65625 45.90625 L 39.65625 71.578125 L 48.390625 71.578125 L 48.390625 0 z M 12.453125 25.875 Q 12.453125 15.921875 16.640625 10.984375 Q 20.84375 6.0625 26.5625 6.0625 Q 32.328125 6.0625 36.34375 10.765625 Q 40.375 15.484375 40.375 25.140625 Q 40.375 35.796875 36.265625 40.765625 Q 32.171875 45.75 26.171875 45.75 Q 20.3125 45.75 16.375 40.96875 Q 12.453125 36.1875 12.453125 25.875 z"/><path id="ArialMT-97" d="M 40.4375 6.390625 Q 35.546875 2.25 31.03125 0.53125 Q 26.515625 -1.171875 21.34375 -1.171875 Q 12.796875 -1.171875 8.203125 3 Q 3.609375 7.171875 3.609375 13.671875 Q 3.609375 17.484375 5.34375 20.625 Q 7.078125 23.78125 9.890625 25.6875 Q 12.703125 27.59375 16.21875 28.5625 Q 18.796875 29.25 24.03125 29.890625 Q 34.671875 31.15625 39.703125 32.90625 Q 39.75 34.71875 39.75 35.203125 Q 39.75 40.578125 37.25 42.78125 Q 33.890625 45.75 27.25 45.75 Q 21.046875 45.75 18.09375 43.578125 Q 15.140625 41.40625 13.71875 35.890625 L 5.125 37.0625 Q 6.296875 42.578125 8.984375 45.96875 Q 11.671875 49.359375 16.75 51.1875 Q 21.828125 53.03125 28.515625 53.03125 Q 35.15625 53.03125 39.296875 51.46875 Q 43.453125 49.90625 45.40625 47.53125 Q 47.359375 45.171875 48.140625 41.546875 Q 48.578125 39.3125 48.578125 33.453125 L 48.578125 21.734375 Q 48.578125 9.46875 49.140625 6.21875 Q 49.703125 2.984375 51.375 0 L 42.1875 0 Q 40.828125 2.734375 40.4375 6.390625 z M 39.703125 26.03125 Q 34.90625 24.078125 25.34375 22.703125 Q 19.921875 21.921875 17.671875 20.9375 Q 15.4375 19.96875 14.203125 18.09375 Q 12.984375 16.21875 12.984375 13.921875 Q 12.984375 10.40625 15.640625 8.0625 Q 18.3125 5.71875 23.4375 5.71875 Q 28.515625 5.71875 32.46875 7.9375 Q 36.421875 10.15625 38.28125 14.015625 Q 39.703125 17 39.703125 22.796875 z"/><path id="ArialMT-116" d="M 25.78125 7.859375 L 27.046875 0.09375 Q 23.34375 -0.6875 20.40625 -0.6875 Q 15.625 -0.6875 12.984375 0.828125 Q 10.359375 2.34375 9.28125 4.8125 Q 8.203125 7.28125 8.203125 15.1875 L 8.203125 45.015625 L 1.765625 45.015625 L 1.765625 51.859375 L 8.203125 51.859375 L 8.203125 64.703125 L 16.9375 69.96875 L 16.9375 51.859375 L 25.78125 51.859375 L 25.78125 45.015625 L 16.9375 45.015625 L 16.9375 14.703125 Q 16.9375 10.9375 17.40625 9.859375 Q 17.875 8.796875 18.921875 8.15625 Q 19.96875 7.515625 21.921875 7.515625 Q 23.390625 7.515625 25.78125 7.859375 z"/><path id="ArialMT-37" d="M 5.8125 54.390625 Q 5.8125 62.0625 9.671875 67.421875 Q 13.53125 72.796875 20.84375 72.796875 Q 27.59375 72.796875 32 67.984375 Q 36.421875 63.1875 36.421875 53.859375 Q 36.421875 44.78125 31.953125 39.875 Q 27.484375 34.96875 20.953125 34.96875 Q 14.453125 34.96875 10.125 39.796875 Q 5.8125 44.625 5.8125 54.390625 z M 21.09375 66.75 Q 17.828125 66.75 15.65625 63.90625 Q 13.484375 61.078125 13.484375 53.515625 Q 13.484375 46.625 15.671875 43.8125 Q 17.875 41.015625 21.09375 41.015625 Q 24.421875 41.015625 26.59375 43.84375 Q 28.765625 46.6875 28.765625 54.203125 Q 28.765625 61.140625 26.5625 63.9375 Q 24.359375 66.75 21.09375 66.75 z M 21.140625 -2.640625 L 60.296875 72.796875 L 67.4375 72.796875 L 28.421875 -2.640625 z M 52.09375 16.796875 Q 52.09375 24.515625 55.953125 29.859375 Q 59.8125 35.203125 67.1875 35.203125 Q 73.921875 35.203125 78.34375 30.390625 Q 82.765625 25.59375 82.765625 16.265625 Q 82.765625 7.171875 78.296875 2.265625 Q 73.828125 -2.640625 67.234375 -2.640625 Q 60.75 -2.640625 56.421875 2.21875 Q 52.09375 7.078125 52.09375 16.796875 z M 67.4375 29.15625 Q 64.109375 29.15625 61.9375 26.3125 Q 59.765625 23.484375 59.765625 15.921875 Q 59.765625 9.078125 61.953125 6.25 Q 64.15625 3.421875 67.390625 3.421875 Q 70.75 3.421875 72.921875 6.25 Q 75.09375 9.078125 75.09375 16.609375 Q 75.09375 23.53125 72.890625 26.34375 Q 70.703125 29.15625 67.4375 29.15625 z"/></defs><use xlink:href="#ArialMT-73"/><use x="27.783" xlink:href="#ArialMT-109"/><use x="111.084" xlink:href="#ArialMT-109"/><use x="194.385" xlink:href="#ArialMT-101"/><use x="250" xlink:href="#ArialMT-100"/><use x="305.615" xlink:href="#ArialMT-105"/><use x="327.832" xlink:href="#ArialMT-97"/><use x="383.447" xlink:href="#ArialMT-116"/><use x="411.23" xlink:href="#ArialMT-101"/><use x="466.846" xlink:href="#ArialMT-32"/><use x="494.629" xlink:href="#ArialMT-117"/><use x="550.244" xlink:href="#ArialMT-115"/><use x="600.244" xlink:href="#ArialMT-97"/><use x="655.859" xlink:href="#ArialMT-103"/><use x="711.475" xlink:href="#ArialMT-101"/><use x="767.09" xlink:href="#ArialMT-32"/><use x="794.873" xlink:href="#ArialMT-105"/><use x="817.09" xlink:href="#ArialMT-110"/><use x="872.705" xlink:href="#ArialMT-32"/><use x="900.488" xlink:href="#ArialMT-37"/></g></g></g><g id="line2d_7"><path d="M -1 122.983836 L 93.22969 122.977761 L 93.22969 122.977761 L 138.883795 117.258794 L 138.883795 117.258794 L 165.589735 113.201122 L 165.589735 113.201122 L 184.537901 110.053747 L 184.537901 110.053747 L 211.24384 105.307904 L 211.24384 105.307904 L 237.94978 100.277107 L 237.94978 100.277107 L 267.051073 94.55814 L 267.051073 94.55814 L 305.24079 86.799896 L 310.309825 85.754625 L 362.903495 74.77172 L 362.903495 74.77172" clip-path="url(#p7acbf3957d)" style="fill:none;stroke:#82cafc;stroke-linecap:round;stroke-width:2"/></g><g id="line2d_8"><path d="M -1 95.208191 L 93.22969 95.179462 L 93.22969 149.124 L 93.22969 61.214383 L 93.22969 103.697021 L 138.883795 132.525681 L 138.883795 79.313422 L 138.883795 149.124 L 138.883795 131.142487 L 165.589735 99.329042 L 165.589735 149.124 L 165.589735 56.043229 L 184.537901 140.133244 L 184.537901 141.417637 L 184.537901 88.706118 L 199.23524 102.469265 L 199.23524 71.204112 L 199.23524 139.315902 L 211.24384 115.216005 L 211.24384 115.408664 L 211.24384 73.601647 L 211.24384 124.39942 L 211.24384 112.395804 L 221.396967 82.403124 L 221.396967 72.967005 L 221.396967 127.546185 L 221.396967 98.35267 L 230.192006 102.372067 L 230.192006 89.959023 L 230.192006 92.006254 L 237.94978 106.622243 L 237.94978 83.293378 L 237.94978 125.669853 L 237.94978 104.699087 L 244.889345 85.371364 L 244.889345 99.751033 L 244.889345 91.58316 L 251.166945 131.388809 L 251.166945 95.179462 L 256.897946 110.592187 L 256.897946 112.214579 L 256.897946 97.524877 L 267.051073 109.375393 L 267.051073 73.601647 L 267.051073 98.978373 L 275.846111 91.66134 L 287.16502 80.145739 L 287.16502 91.15375 L 290.54345 81.693328 L 293.757012 97.427151 L 296.821051 127.546185 L 296.821051 88.528766 L 302.552051 88.436395 L 305.24079 81.693328 L 310.309825 122.880711 L 310.309825 101.369819 L 362.903495 114.06005 L 362.903495 114.06005" clip-path="url(#p7acbf3957d)" style="fill:none"/><defs><path id="mbb166c231d" d="M 0 1.2 C 0.318244 1.2 0.623496 1.07356 0.848528 0.848528 C 1.07356 0.623496 1.2 0.318244 1.2 0 C 1.2 -0.318244 1.07356 -0.623496 0.848528 -0.848528 C 0.623496 -1.07356 0.318244 -1.2 0 -1.2 C -0.318244 -1.2 -0.623496 -1.07356 -0.848528 -0.848528 C -1.07356 -0.623496 -1.2 -0.318244 -1.2 0 C -1.2 0.318244 -1.07356 0.623496 -0.848528 0.848528 C -0.623496 1.07356 -0.318244 1.2 0 1.2 z" style="stroke:#cfeafe"/></defs><g clip-path="url(#p7acbf3957d)"><use style="fill:#cfeafe;stroke:#cfeafe" x="-1" y="95.208" xlink:href="#mbb166c231d"/><use style="fill:#cfeafe;stroke:#cfeafe" x="93.23" y="95.179" xlink:href="#mbb166c231d"/><use style="fill:#cfeafe;stroke:#cfeafe" x="93.23" y="143.13" xlink:href="#mbb166c231d"/><use style="fill:#cfeafe;stroke:#cfeafe" x="93.23" y="126.005" xlink:href="#mbb166c231d"/><use style="fill:#cfeafe;stroke:#cfeafe" x="93.23" y="119.155" xlink:href="#mbb166c231d"/><use style="fill:#cfeafe;stroke:#cfeafe" x="93.23" y="149.124" xlink:href="#mbb166c231d"/><use style="fill:#cfeafe;stroke:#cfeafe" x="93.23" y="122.152" xlink:href="#mbb166c231d"/><use style="fill:#cfeafe;stroke:#cfeafe" x="93.23" y="113.161" xlink:href="#mbb166c231d"/><use style="fill:#cfeafe;stroke:#cfeafe" x="93.23" y="113.161" xlink:href="#mbb166c231d"/><use style="fill:#cfeafe;stroke:#cfeafe" x="93.23" y="120.354" xlink:href="#mbb166c231d"/><use style="fill:#cfeafe;stroke:#cfeafe" x="93.23" y="149.124" xlink:href="#mbb166c231d"/><use style="fill:#cfeafe;stroke:#cfeafe" x="93.23" y="114.796" xlink:href="#mbb166c231d"/><use style="fill:#cfeafe;stroke:#cfeafe" x="93.23" y="127.546" xlink:href="#mbb166c231d"/><use style="fill:#cfeafe;stroke:#cfeafe" x="93.23" y="140.133" xlink:href="#mbb166c231d"/><use style="fill:#cfeafe;stroke:#cfeafe" x="93.23" y="124.227" xlink:href="#mbb166c231d"/><use style="fill:#cfeafe;stroke:#cfeafe" x="93.23" y="137.136" xlink:href="#mbb166c231d"/><use style="fill:#cfeafe;stroke:#cfeafe" x="93.23" y="113.161" xlink:href="#mbb166c231d"/><use style="fill:#cfeafe;stroke:#cfeafe" x="93.23" y="82.919" xlink:href="#mbb166c231d"/><use style="fill:#cfeafe;stroke:#cfeafe" x="93.23" y="127.546" xlink:href="#mbb166c231d"/><use style="fill:#cfeafe;stroke:#cfeafe" x="93.23" y="132.526" xlink:href="#mbb166c231d"/><use style="fill:#cfeafe;stroke:#cfeafe" x="93.23" y="125.523" xlink:href="#mbb166c231d"/><use style="fill:#cfeafe;stroke:#cfeafe" x="93.23" y="93.545" xlink:href="#mbb166c231d"/><use style="fill:#cfeafe;stroke:#cfeafe" x="93.23" y="114.518" xlink:href="#mbb166c231d"/><use style="fill:#cfeafe;stroke:#cfeafe" x="93.23" y="117.656" xlink:href="#mbb166c231d"/><use style="fill:#cfeafe;stroke:#cfeafe" x="93.23" y="113.161" xlink:href="#mbb166c231d"/><use style="fill:#cfeafe;stroke:#cfeafe" x="93.23" y="125.149" xlink:href="#mbb166c231d"/><use style="fill:#cfeafe;stroke:#cfeafe" x="93.23" y="149.124" xlink:href="#mbb166c231d"/><use style="fill:#cfeafe;stroke:#cfeafe" x="93.23" y="108.023" xlink:href="#mbb166c231d"/><use style="fill:#cfeafe;stroke:#cfeafe" x="93.23" y="119.7" xlink:href="#mbb166c231d"/><use style="fill:#cfeafe;stroke:#cfeafe" x="93.23" y="132.089" xlink:href="#mbb166c231d"/><use style="fill:#cfeafe;stroke:#cfeafe" x="93.23" y="120.354" xlink:href="#mbb166c231d"/><use style="fill:#cfeafe;stroke:#cfeafe" x="93.23" y="107.289" xlink:href="#mbb166c231d"/><use style="fill:#cfeafe;stroke:#cfeafe" x="93.23" y="142.778" xlink:href="#mbb166c231d"/><use style="fill:#cfeafe;stroke:#cfeafe" x="93.23" y="125.149" xlink:href="#mbb166c231d"/><use style="fill:#cfeafe;stroke:#cfeafe" x="93.23" y="127.546" xlink:href="#mbb166c231d"/><use style="fill:#cfeafe;stroke:#cfeafe" x="93.23" y="129.145" xlink:href="#mbb166c231d"/><use style="fill:#cfeafe;stroke:#cfeafe" x="93.23" y="125.67" xlink:href="#mbb166c231d"/><use style="fill:#cfeafe;stroke:#cfeafe" x="93.23" y="136.047" xlink:href="#mbb166c231d"/><use style="fill:#cfeafe;stroke:#cfeafe" x="93.23" y="61.214" xlink:href="#mbb166c231d"/><use style="fill:#cfeafe;stroke:#cfeafe" x="93.23" y="149.124" xlink:href="#mbb166c231d"/><use style="fill:#cfeafe;stroke:#cfeafe" x="93.23" y="126.238" xlink:href="#mbb166c231d"/><use style="fill:#cfeafe;stroke:#cfeafe" x="93.23" y="142.959" xlink:href="#mbb166c231d"/><use style="fill:#cfeafe;stroke:#cfeafe" x="93.23" y="124.227" xlink:href="#mbb166c231d"/><use style="fill:#cfeafe;stroke:#cfeafe" x="93.23" y="96.978" xlink:href="#mbb166c231d"/><use style="fill:#cfeafe;stroke:#cfeafe" x="93.23" y="113.161" xlink:href="#mbb166c231d"/><use style="fill:#cfeafe;stroke:#cfeafe" x="93.23" y="137.136" xlink:href="#mbb166c231d"/><use style="fill:#cfeafe;stroke:#cfeafe" x="93.23" y="136.431" xlink:href="#mbb166c231d"/><use style="fill:#cfeafe;stroke:#cfeafe" x="93.23" y="113.161" xlink:href="#mbb166c231d"/><use style="fill:#cfeafe;stroke:#cfeafe" x="93.23" y="136.431" xlink:href="#mbb166c231d"/><use style="fill:#cfeafe;stroke:#cfeafe" x="93.23" y="119.155" xlink:href="#mbb166c231d"/><use style="fill:#cfeafe;stroke:#cfeafe" x="93.23" y="127.546" xlink:href="#mbb166c231d"/><use style="fill:#cfeafe;stroke:#cfeafe" x="93.23" y="140.825" xlink:href="#mbb166c231d"/><use style="fill:#cfeafe;stroke:#cfeafe" x="93.23" y="95.179" xlink:href="#mbb166c231d"/><use style="fill:#cfeafe;stroke:#cfeafe" x="93.23" y="108.666" xlink:href="#mbb166c231d"/><use style="fill:#cfeafe;stroke:#cfeafe" x="93.23" y="113.161" xlink:href="#mbb166c231d"/><use style="fill:#cfeafe;stroke:#cfeafe" x="93.23" y="113.161" xlink:href="#mbb166c231d"/><use style="fill:#cfeafe;stroke:#cfeafe" x="93.23" y="125.149" xlink:href="#mbb166c231d"/><use style="fill:#cfeafe;stroke:#cfeafe" x="93.23" y="136.431" xlink:href="#mbb166c231d"/><use style="fill:#cfeafe;stroke:#cfeafe" x="93.23" y="118.299" xlink:href="#mbb166c231d"/><use style="fill:#cfeafe;stroke:#cfeafe" x="93.23" y="100.574" xlink:href="#mbb166c231d"/><use style="fill:#cfeafe;stroke:#cfeafe" x="93.23" y="110.841" xlink:href="#mbb166c231d"/><use style="fill:#cfeafe;stroke:#cfeafe" x="93.23" y="103.697" xlink:href="#mbb166c231d"/><use style="fill:#cfeafe;stroke:#cfeafe" x="138.884" y="132.526" xlink:href="#mbb166c231d"/><use style="fill:#cfeafe;stroke:#cfeafe" x="138.884" y="102.886" xlink:href="#mbb166c231d"/><use style="fill:#cfeafe;stroke:#cfeafe" x="138.884" y="127.546" xlink:href="#mbb166c231d"/><use style="fill:#cfeafe;stroke:#cfeafe" x="138.884" y="108.666" xlink:href="#mbb166c231d"/><use style="fill:#cfeafe;stroke:#cfeafe" x="138.884" y="101.173" xlink:href="#mbb166c231d"/><use style="fill:#cfeafe;stroke:#cfeafe" x="138.884" y="82.429" xlink:href="#mbb166c231d"/><use style="fill:#cfeafe;stroke:#cfeafe" x="138.884" y="133.711" xlink:href="#mbb166c231d"/><use style="fill:#cfeafe;stroke:#cfeafe" x="138.884" y="122.152" xlink:href="#mbb166c231d"/><use style="fill:#cfeafe;stroke:#cfeafe" x="138.884" y="127.546" xlink:href="#mbb166c231d"/><use style="fill:#cfeafe;stroke:#cfeafe" x="138.884" y="149.124" xlink:href="#mbb166c231d"/><use style="fill:#cfeafe;stroke:#cfeafe" x="138.884" y="79.313" xlink:href="#mbb166c231d"/><use style="fill:#cfeafe;stroke:#cfeafe" x="138.884" y="91.03" xlink:href="#mbb166c231d"/><use style="fill:#cfeafe;stroke:#cfeafe" x="138.884" y="105.968" xlink:href="#mbb166c231d"/><use style="fill:#cfeafe;stroke:#cfeafe" x="138.884" y="101.804" xlink:href="#mbb166c231d"/><use style="fill:#cfeafe;stroke:#cfeafe" x="138.884" y="113.161" xlink:href="#mbb166c231d"/><use style="fill:#cfeafe;stroke:#cfeafe" x="138.884" y="113.161" xlink:href="#mbb166c231d"/><use style="fill:#cfeafe;stroke:#cfeafe" x="138.884" y="111.046" xlink:href="#mbb166c231d"/><use style="fill:#cfeafe;stroke:#cfeafe" x="138.884" y="101.923" xlink:href="#mbb166c231d"/><use style="fill:#cfeafe;stroke:#cfeafe" x="138.884" y="129.508" xlink:href="#mbb166c231d"/><use style="fill:#cfeafe;stroke:#cfeafe" x="138.884" y="116.987" xlink:href="#mbb166c231d"/><use style="fill:#cfeafe;stroke:#cfeafe" x="138.884" y="119.7" xlink:href="#mbb166c231d"/><use style="fill:#cfeafe;stroke:#cfeafe" x="138.884" y="127.546" xlink:href="#mbb166c231d"/><use style="fill:#cfeafe;stroke:#cfeafe" x="138.884" y="89.917" xlink:href="#mbb166c231d"/><use style="fill:#cfeafe;stroke:#cfeafe" x="138.884" y="118.299" xlink:href="#mbb166c231d"/><use style="fill:#cfeafe;stroke:#cfeafe" x="138.884" y="106.443" xlink:href="#mbb166c231d"/><use style="fill:#cfeafe;stroke:#cfeafe" x="138.884" y="109.892" xlink:href="#mbb166c231d"/><use style="fill:#cfeafe;stroke:#cfeafe" x="138.884" y="113.161" xlink:href="#mbb166c231d"/><use style="fill:#cfeafe;stroke:#cfeafe" x="138.884" y="132.526" xlink:href="#mbb166c231d"/><use style="fill:#cfeafe;stroke:#cfeafe" x="138.884" y="124.227" xlink:href="#mbb166c231d"/><use style="fill:#cfeafe;stroke:#cfeafe" x="138.884" y="127.546" xlink:href="#mbb166c231d"/><use style="fill:#cfeafe;stroke:#cfeafe" x="138.884" y="141.931" xlink:href="#mbb166c231d"/><use style="fill:#cfeafe;stroke:#cfeafe" x="138.884" y="131.142" xlink:href="#mbb166c231d"/><use style="fill:#cfeafe;stroke:#cfeafe" x="165.59" y="99.329" xlink:href="#mbb166c231d"/><use style="fill:#cfeafe;stroke:#cfeafe" x="165.59" y="111.268" xlink:href="#mbb166c231d"/><use style="fill:#cfeafe;stroke:#cfeafe" x="165.59" y="110.592" xlink:href="#mbb166c231d"/><use style="fill:#cfeafe;stroke:#cfeafe" x="165.59" y="89.599" xlink:href="#mbb166c231d"/><use style="fill:#cfeafe;stroke:#cfeafe" x="165.59" y="149.124" xlink:href="#mbb166c231d"/><use style="fill:#cfeafe;stroke:#cfeafe" x="165.59" y="81.693" xlink:href="#mbb166c231d"/><use style="fill:#cfeafe;stroke:#cfeafe" x="165.59" y="110.284" xlink:href="#mbb166c231d"/><use style="fill:#cfeafe;stroke:#cfeafe" x="165.59" y="116.757" xlink:href="#mbb166c231d"/><use style="fill:#cfeafe;stroke:#cfeafe" x="165.59" y="109.892" xlink:href="#mbb166c231d"/><use style="fill:#cfeafe;stroke:#cfeafe" x="165.59" y="95.179" xlink:href="#mbb166c231d"/><use style="fill:#cfeafe;stroke:#cfeafe" x="165.59" y="97.177" xlink:href="#mbb166c231d"/><use style="fill:#cfeafe;stroke:#cfeafe" x="165.59" y="105.968" xlink:href="#mbb166c231d"/><use style="fill:#cfeafe;stroke:#cfeafe" x="165.59" y="90.806" xlink:href="#mbb166c231d"/><use style="fill:#cfeafe;stroke:#cfeafe" x="165.59" y="98.776" xlink:href="#mbb166c231d"/><use style="fill:#cfeafe;stroke:#cfeafe" x="165.59" y="105.968" xlink:href="#mbb166c231d"/><use style="fill:#cfeafe;stroke:#cfeafe" x="165.59" y="95.179" xlink:href="#mbb166c231d"/><use style="fill:#cfeafe;stroke:#cfeafe" x="165.59" y="109.892" xlink:href="#mbb166c231d"/><use style="fill:#cfeafe;stroke:#cfeafe" x="165.59" y="132.941" xlink:href="#mbb166c231d"/><use style="fill:#cfeafe;stroke:#cfeafe" x="165.59" y="95.179" xlink:href="#mbb166c231d"/><use style="fill:#cfeafe;stroke:#cfeafe" x="165.59" y="108.666" xlink:href="#mbb166c231d"/><use style="fill:#cfeafe;stroke:#cfeafe" x="165.59" y="56.043" xlink:href="#mbb166c231d"/><use style="fill:#cfeafe;stroke:#cfeafe" x="184.538" y="140.133" xlink:href="#mbb166c231d"/><use style="fill:#cfeafe;stroke:#cfeafe" x="184.538" y="119.7" xlink:href="#mbb166c231d"/><use style="fill:#cfeafe;stroke:#cfeafe" x="184.538" y="126.005" xlink:href="#mbb166c231d"/><use style="fill:#cfeafe;stroke:#cfeafe" x="184.538" y="132.089" xlink:href="#mbb166c231d"/><use style="fill:#cfeafe;stroke:#cfeafe" x="184.538" y="102.886" xlink:href="#mbb166c231d"/><use style="fill:#cfeafe;stroke:#cfeafe" x="184.538" y="109.736" xlink:href="#mbb166c231d"/><use style="fill:#cfeafe;stroke:#cfeafe" x="184.538" y="117.656" xlink:href="#mbb166c231d"/><use style="fill:#cfeafe;stroke:#cfeafe" x="184.538" y="101.173" xlink:href="#mbb166c231d"/><use style="fill:#cfeafe;stroke:#cfeafe" x="184.538" y="106.228" xlink:href="#mbb166c231d"/><use style="fill:#cfeafe;stroke:#cfeafe" x="184.538" y="141.418" xlink:href="#mbb166c231d"/><use style="fill:#cfeafe;stroke:#cfeafe" x="184.538" y="95.179" xlink:href="#mbb166c231d"/><use style="fill:#cfeafe;stroke:#cfeafe" x="184.538" y="88.706" xlink:href="#mbb166c231d"/><use style="fill:#cfeafe;stroke:#cfeafe" x="199.235" y="102.469" xlink:href="#mbb166c231d"/><use style="fill:#cfeafe;stroke:#cfeafe" x="199.235" y="88.436" xlink:href="#mbb166c231d"/><use style="fill:#cfeafe;stroke:#cfeafe" x="199.235" y="120.354" xlink:href="#mbb166c231d"/><use style="fill:#cfeafe;stroke:#cfeafe" x="199.235" y="115.054" xlink:href="#mbb166c231d"/><use style="fill:#cfeafe;stroke:#cfeafe" x="199.235" y="71.204" xlink:href="#mbb166c231d"/><use style="fill:#cfeafe;stroke:#cfeafe" x="199.235" y="107.628" xlink:href="#mbb166c231d"/><use style="fill:#cfeafe;stroke:#cfeafe" x="199.235" y="90.608" xlink:href="#mbb166c231d"/><use style="fill:#cfeafe;stroke:#cfeafe" x="199.235" y="78.438" xlink:href="#mbb166c231d"/><use style="fill:#cfeafe;stroke:#cfeafe" x="199.235" y="124.363" xlink:href="#mbb166c231d"/><use style="fill:#cfeafe;stroke:#cfeafe" x="199.235" y="139.316" xlink:href="#mbb166c231d"/><use style="fill:#cfeafe;stroke:#cfeafe" x="211.244" y="115.216" xlink:href="#mbb166c231d"/><use style="fill:#cfeafe;stroke:#cfeafe" x="211.244" y="115.409" xlink:href="#mbb166c231d"/><use style="fill:#cfeafe;stroke:#cfeafe" x="211.244" y="104.699" xlink:href="#mbb166c231d"/><use style="fill:#cfeafe;stroke:#cfeafe" x="211.244" y="90.275" xlink:href="#mbb166c231d"/><use style="fill:#cfeafe;stroke:#cfeafe" x="211.244" y="123.231" xlink:href="#mbb166c231d"/><use style="fill:#cfeafe;stroke:#cfeafe" x="211.244" y="87.145" xlink:href="#mbb166c231d"/><use style="fill:#cfeafe;stroke:#cfeafe" x="211.244" y="100.084" xlink:href="#mbb166c231d"/><use style="fill:#cfeafe;stroke:#cfeafe" x="211.244" y="89.186" xlink:href="#mbb166c231d"/><use style="fill:#cfeafe;stroke:#cfeafe" x="211.244" y="73.602" xlink:href="#mbb166c231d"/><use style="fill:#cfeafe;stroke:#cfeafe" x="211.244" y="124.399" xlink:href="#mbb166c231d"/><use style="fill:#cfeafe;stroke:#cfeafe" x="211.244" y="102.095" xlink:href="#mbb166c231d"/><use style="fill:#cfeafe;stroke:#cfeafe" x="211.244" y="98.019" xlink:href="#mbb166c231d"/><use style="fill:#cfeafe;stroke:#cfeafe" x="211.244" y="113.161" xlink:href="#mbb166c231d"/><use style="fill:#cfeafe;stroke:#cfeafe" x="211.244" y="112.396" xlink:href="#mbb166c231d"/><use style="fill:#cfeafe;stroke:#cfeafe" x="221.397" y="82.403" xlink:href="#mbb166c231d"/><use style="fill:#cfeafe;stroke:#cfeafe" x="221.397" y="72.967" xlink:href="#mbb166c231d"/><use style="fill:#cfeafe;stroke:#cfeafe" x="221.397" y="127.546" xlink:href="#mbb166c231d"/><use style="fill:#cfeafe;stroke:#cfeafe" x="221.397" y="91.326" xlink:href="#mbb166c231d"/><use style="fill:#cfeafe;stroke:#cfeafe" x="221.397" y="78.996" xlink:href="#mbb166c231d"/><use style="fill:#cfeafe;stroke:#cfeafe" x="221.397" y="110.841" xlink:href="#mbb166c231d"/><use style="fill:#cfeafe;stroke:#cfeafe" x="221.397" y="98.353" xlink:href="#mbb166c231d"/><use style="fill:#cfeafe;stroke:#cfeafe" x="230.192" y="102.372" xlink:href="#mbb166c231d"/><use style="fill:#cfeafe;stroke:#cfeafe" x="230.192" y="97.337" xlink:href="#mbb166c231d"/><use style="fill:#cfeafe;stroke:#cfeafe" x="230.192" y="89.959" xlink:href="#mbb166c231d"/><use style="fill:#cfeafe;stroke:#cfeafe" x="230.192" y="95.179" xlink:href="#mbb166c231d"/><use style="fill:#cfeafe;stroke:#cfeafe" x="230.192" y="92.006" xlink:href="#mbb166c231d"/><use style="fill:#cfeafe;stroke:#cfeafe" x="237.95" y="106.622" xlink:href="#mbb166c231d"/><use style="fill:#cfeafe;stroke:#cfeafe" x="237.95" y="83.293" xlink:href="#mbb166c231d"/><use style="fill:#cfeafe;stroke:#cfeafe" x="237.95" y="121.028" xlink:href="#mbb166c231d"/><use style="fill:#cfeafe;stroke:#cfeafe" x="237.95" y="108.445" xlink:href="#mbb166c231d"/><use style="fill:#cfeafe;stroke:#cfeafe" x="237.95" y="125.67" xlink:href="#mbb166c231d"/><use style="fill:#cfeafe;stroke:#cfeafe" x="237.95" y="85.66" xlink:href="#mbb166c231d"/><use style="fill:#cfeafe;stroke:#cfeafe" x="237.95" y="104.699" xlink:href="#mbb166c231d"/><use style="fill:#cfeafe;stroke:#cfeafe" x="244.889" y="85.371" xlink:href="#mbb166c231d"/><use style="fill:#cfeafe;stroke:#cfeafe" x="244.889" y="99.751" xlink:href="#mbb166c231d"/><use style="fill:#cfeafe;stroke:#cfeafe" x="244.889" y="91.583" xlink:href="#mbb166c231d"/><use style="fill:#cfeafe;stroke:#cfeafe" x="251.167" y="131.389" xlink:href="#mbb166c231d"/><use style="fill:#cfeafe;stroke:#cfeafe" x="251.167" y="95.179" xlink:href="#mbb166c231d"/><use style="fill:#cfeafe;stroke:#cfeafe" x="256.898" y="110.592" xlink:href="#mbb166c231d"/><use style="fill:#cfeafe;stroke:#cfeafe" x="256.898" y="112.215" xlink:href="#mbb166c231d"/><use style="fill:#cfeafe;stroke:#cfeafe" x="256.898" y="97.525" xlink:href="#mbb166c231d"/><use style="fill:#cfeafe;stroke:#cfeafe" x="267.051" y="109.375" xlink:href="#mbb166c231d"/><use style="fill:#cfeafe;stroke:#cfeafe" x="267.051" y="73.602" xlink:href="#mbb166c231d"/><use style="fill:#cfeafe;stroke:#cfeafe" x="267.051" y="107.167" xlink:href="#mbb166c231d"/><use style="fill:#cfeafe;stroke:#cfeafe" x="267.051" y="98.978" xlink:href="#mbb166c231d"/><use style="fill:#cfeafe;stroke:#cfeafe" x="275.846" y="91.661" xlink:href="#mbb166c231d"/><use style="fill:#cfeafe;stroke:#cfeafe" x="287.165" y="80.146" xlink:href="#mbb166c231d"/><use style="fill:#cfeafe;stroke:#cfeafe" x="287.165" y="91.154" xlink:href="#mbb166c231d"/><use style="fill:#cfeafe;stroke:#cfeafe" x="290.543" y="81.693" xlink:href="#mbb166c231d"/><use style="fill:#cfeafe;stroke:#cfeafe" x="293.757" y="97.427" xlink:href="#mbb166c231d"/><use style="fill:#cfeafe;stroke:#cfeafe" x="296.821" y="127.546" xlink:href="#mbb166c231d"/><use style="fill:#cfeafe;stroke:#cfeafe" x="296.821" y="88.529" xlink:href="#mbb166c231d"/><use style="fill:#cfeafe;stroke:#cfeafe" x="302.552" y="88.436" xlink:href="#mbb166c231d"/><use style="fill:#cfeafe;stroke:#cfeafe" x="305.241" y="81.693" xlink:href="#mbb166c231d"/><use style="fill:#cfeafe;stroke:#cfeafe" x="310.31" y="122.881" xlink:href="#mbb166c231d"/><use style="fill:#cfeafe;stroke:#cfeafe" x="310.31" y="101.37" xlink:href="#mbb166c231d"/><use style="fill:#cfeafe;stroke:#cfeafe" x="362.903" y="114.06" xlink:href="#mbb166c231d"/></g></g><g id="line2d_9"><path d="M -1 141.01303 L 93.22969 141.012451 L 93.22969 141.012451 L 165.589735 140.080543 L 165.589735 140.080543 L 244.889345 138.720486 L 244.889345 138.720486 L 362.903495 136.417455 L 362.903495 136.417455" clip-path="url(#p7acbf3957d)" style="fill:none;stroke:#828282;stroke-linecap:round;stroke-width:2"/></g><g id="line2d_10"><path d="M -1 149.124 L 93.22969 149.124 L 93.22969 118.29855 L 93.22969 140.981428 L 138.883795 149.124 L 138.883795 149.124 L 138.883795 113.160975 L 138.883795 149.124 L 165.589735 141.353095 L 165.589735 149.124 L 165.589735 134.544395 L 165.589735 143.729546 L 184.537901 141.132217 L 184.537901 118.85452 L 184.537901 149.124 L 184.537901 132.607941 L 199.23524 138.673206 L 199.23524 149.124 L 199.23524 136.011986 L 199.23524 149.124 L 211.24384 141.229677 L 211.24384 149.124 L 211.24384 122.261374 L 211.24384 142.01911 L 221.396967 138.54664 L 221.396967 95.179462 L 221.396967 149.124 L 230.192006 137.700451 L 230.192006 149.124 L 230.192006 138.003854 L 237.94978 144.433171 L 237.94978 123.451599 L 237.94978 149.124 L 237.94978 136.832839 L 244.889345 139.918447 L 244.889345 149.124 L 244.889345 143.986425 L 251.166945 145.146523 L 251.166945 124.511805 L 256.897946 141.032319 L 256.897946 133.48436 L 256.897946 144.808437 L 267.051073 130.966772 L 267.051073 141.658461 L 275.846111 120.536133 L 287.16502 134.995669 L 287.16502 133.140433 L 290.54345 140.662112 L 293.757012 138.725053 L 296.821051 133.511542 L 296.821051 128.63545 L 302.552051 139.280106 L 305.24079 144.628622 L 310.309825 137.847458 L 310.309825 143.232446 L 362.903495 139.589617 L 362.903495 139.589617" clip-path="url(#p7acbf3957d)" style="fill:none"/><defs><path id="m78701da635" d="M 0 1.2 C 0.318244 1.2 0.623496 1.07356 0.848528 0.848528 C 1.07356 0.623496 1.2 0.318244 1.2 0 C 1.2 -0.318244 1.07356 -0.623496 0.848528 -0.848528 C 0.623496 -1.07356 0.318244 -1.2 0 -1.2 C -0.318244 -1.2 -0.623496 -1.07356 -0.848528 -0.848528 C -1.07356 -0.623496 -1.2 -0.318244 -1.2 0 C -1.2 0.318244 -1.07356 0.623496 -0.848528 0.848528 C -0.623496 1.07356 -0.318244 1.2 0 1.2 z" style="stroke:#a9a9a9"/></defs><g clip-path="url(#p7acbf3957d)"><use style="fill:#a9a9a9;stroke:#a9a9a9" x="-1" y="149.124" xlink:href="#m78701da635"/><use style="fill:#a9a9a9;stroke:#a9a9a9" x="93.23" y="149.124" xlink:href="#m78701da635"/><use style="fill:#a9a9a9;stroke:#a9a9a9" x="93.23" y="136.047" xlink:href="#m78701da635"/><use style="fill:#a9a9a9;stroke:#a9a9a9" x="93.23" y="140.133" xlink:href="#m78701da635"/><use style="fill:#a9a9a9;stroke:#a9a9a9" x="93.23" y="134.179" xlink:href="#m78701da635"/><use style="fill:#a9a9a9;stroke:#a9a9a9" x="93.23" y="139.513" xlink:href="#m78701da635"/><use style="fill:#a9a9a9;stroke:#a9a9a9" x="93.23" y="141.823" xlink:href="#m78701da635"/><use style="fill:#a9a9a9;stroke:#a9a9a9" x="93.23" y="145.128" xlink:href="#m78701da635"/><use style="fill:#a9a9a9;stroke:#a9a9a9" x="93.23" y="136.486" xlink:href="#m78701da635"/><use style="fill:#a9a9a9;stroke:#a9a9a9" x="93.23" y="149.124" xlink:href="#m78701da635"/><use style="fill:#a9a9a9;stroke:#a9a9a9" x="93.23" y="142.044" xlink:href="#m78701da635"/><use style="fill:#a9a9a9;stroke:#a9a9a9" x="93.23" y="118.299" xlink:href="#m78701da635"/><use style="fill:#a9a9a9;stroke:#a9a9a9" x="93.23" y="136.452" xlink:href="#m78701da635"/><use style="fill:#a9a9a9;stroke:#a9a9a9" x="93.23" y="139.753" xlink:href="#m78701da635"/><use style="fill:#a9a9a9;stroke:#a9a9a9" x="93.23" y="136.762" xlink:href="#m78701da635"/><use style="fill:#a9a9a9;stroke:#a9a9a9" x="93.23" y="142.381" xlink:href="#m78701da635"/><use style="fill:#a9a9a9;stroke:#a9a9a9" x="93.23" y="141.418" xlink:href="#m78701da635"/><use style="fill:#a9a9a9;stroke:#a9a9a9" x="93.23" y="135.393" xlink:href="#m78701da635"/><use style="fill:#a9a9a9;stroke:#a9a9a9" x="93.23" y="143.544" xlink:href="#m78701da635"/><use style="fill:#a9a9a9;stroke:#a9a9a9" x="93.23" y="139.316" xlink:href="#m78701da635"/><use style="fill:#a9a9a9;stroke:#a9a9a9" x="93.23" y="137.564" xlink:href="#m78701da635"/><use style="fill:#a9a9a9;stroke:#a9a9a9" x="93.23" y="141.72" xlink:href="#m78701da635"/><use style="fill:#a9a9a9;stroke:#a9a9a9" x="93.23" y="135.203" xlink:href="#m78701da635"/><use style="fill:#a9a9a9;stroke:#a9a9a9" x="93.23" y="131.142" xlink:href="#m78701da635"/><use style="fill:#a9a9a9;stroke:#a9a9a9" x="93.23" y="149.124" xlink:href="#m78701da635"/><use style="fill:#a9a9a9;stroke:#a9a9a9" x="93.23" y="141.132" xlink:href="#m78701da635"/><use style="fill:#a9a9a9;stroke:#a9a9a9" x="93.23" y="149.124" xlink:href="#m78701da635"/><use style="fill:#a9a9a9;stroke:#a9a9a9" x="93.23" y="143.986" xlink:href="#m78701da635"/><use style="fill:#a9a9a9;stroke:#a9a9a9" x="93.23" y="138.335" xlink:href="#m78701da635"/><use style="fill:#a9a9a9;stroke:#a9a9a9" x="93.23" y="141.418" xlink:href="#m78701da635"/><use style="fill:#a9a9a9;stroke:#a9a9a9" x="93.23" y="149.124" xlink:href="#m78701da635"/><use style="fill:#a9a9a9;stroke:#a9a9a9" x="93.23" y="142.994" xlink:href="#m78701da635"/><use style="fill:#a9a9a9;stroke:#a9a9a9" x="93.23" y="149.124" xlink:href="#m78701da635"/><use style="fill:#a9a9a9;stroke:#a9a9a9" x="93.23" y="141.418" xlink:href="#m78701da635"/><use style="fill:#a9a9a9;stroke:#a9a9a9" x="93.23" y="149.124" xlink:href="#m78701da635"/><use style="fill:#a9a9a9;stroke:#a9a9a9" x="93.23" y="142.923" xlink:href="#m78701da635"/><use style="fill:#a9a9a9;stroke:#a9a9a9" x="93.23" y="149.124" xlink:href="#m78701da635"/><use style="fill:#a9a9a9;stroke:#a9a9a9" x="93.23" y="131.142" xlink:href="#m78701da635"/><use style="fill:#a9a9a9;stroke:#a9a9a9" x="93.23" y="138.727" xlink:href="#m78701da635"/><use style="fill:#a9a9a9;stroke:#a9a9a9" x="93.23" y="144.808" xlink:href="#m78701da635"/><use style="fill:#a9a9a9;stroke:#a9a9a9" x="93.23" y="135.638" xlink:href="#m78701da635"/><use style="fill:#a9a9a9;stroke:#a9a9a9" x="93.23" y="137.303" xlink:href="#m78701da635"/><use style="fill:#a9a9a9;stroke:#a9a9a9" x="93.23" y="149.124" xlink:href="#m78701da635"/><use style="fill:#a9a9a9;stroke:#a9a9a9" x="93.23" y="135.052" xlink:href="#m78701da635"/><use style="fill:#a9a9a9;stroke:#a9a9a9" x="93.23" y="138.683" xlink:href="#m78701da635"/><use style="fill:#a9a9a9;stroke:#a9a9a9" x="93.23" y="136.735" xlink:href="#m78701da635"/><use style="fill:#a9a9a9;stroke:#a9a9a9" x="93.23" y="149.124" xlink:href="#m78701da635"/><use style="fill:#a9a9a9;stroke:#a9a9a9" x="93.23" y="137.691" xlink:href="#m78701da635"/><use style="fill:#a9a9a9;stroke:#a9a9a9" x="93.23" y="136.723" xlink:href="#m78701da635"/><use style="fill:#a9a9a9;stroke:#a9a9a9" x="93.23" y="140.981" xlink:href="#m78701da635"/><use style="fill:#a9a9a9;stroke:#a9a9a9" x="138.884" y="149.124" xlink:href="#m78701da635"/><use style="fill:#a9a9a9;stroke:#a9a9a9" x="138.884" y="149.124" xlink:href="#m78701da635"/><use style="fill:#a9a9a9;stroke:#a9a9a9" x="138.884" y="132.855" xlink:href="#m78701da635"/><use style="fill:#a9a9a9;stroke:#a9a9a9" x="138.884" y="141.418" xlink:href="#m78701da635"/><use style="fill:#a9a9a9;stroke:#a9a9a9" x="138.884" y="139.56" xlink:href="#m78701da635"/><use style="fill:#a9a9a9;stroke:#a9a9a9" x="138.884" y="137.597" xlink:href="#m78701da635"/><use style="fill:#a9a9a9;stroke:#a9a9a9" x="138.884" y="149.124" xlink:href="#m78701da635"/><use style="fill:#a9a9a9;stroke:#a9a9a9" x="138.884" y="149.124" xlink:href="#m78701da635"/><use style="fill:#a9a9a9;stroke:#a9a9a9" x="138.884" y="142.323" xlink:href="#m78701da635"/><use style="fill:#a9a9a9;stroke:#a9a9a9" x="138.884" y="113.161" xlink:href="#m78701da635"/><use style="fill:#a9a9a9;stroke:#a9a9a9" x="138.884" y="138.543" xlink:href="#m78701da635"/><use style="fill:#a9a9a9;stroke:#a9a9a9" x="138.884" y="141.931" xlink:href="#m78701da635"/><use style="fill:#a9a9a9;stroke:#a9a9a9" x="138.884" y="141.032" xlink:href="#m78701da635"/><use style="fill:#a9a9a9;stroke:#a9a9a9" x="138.884" y="123.24" xlink:href="#m78701da635"/><use style="fill:#a9a9a9;stroke:#a9a9a9" x="138.884" y="149.124" xlink:href="#m78701da635"/><use style="fill:#a9a9a9;stroke:#a9a9a9" x="138.884" y="143.446" xlink:href="#m78701da635"/><use style="fill:#a9a9a9;stroke:#a9a9a9" x="138.884" y="130.531" xlink:href="#m78701da635"/><use style="fill:#a9a9a9;stroke:#a9a9a9" x="138.884" y="149.124" xlink:href="#m78701da635"/><use style="fill:#a9a9a9;stroke:#a9a9a9" x="138.884" y="132.101" xlink:href="#m78701da635"/><use style="fill:#a9a9a9;stroke:#a9a9a9" x="138.884" y="137.637" xlink:href="#m78701da635"/><use style="fill:#a9a9a9;stroke:#a9a9a9" x="138.884" y="146.127" xlink:href="#m78701da635"/><use style="fill:#a9a9a9;stroke:#a9a9a9" x="138.884" y="143.046" xlink:href="#m78701da635"/><use style="fill:#a9a9a9;stroke:#a9a9a9" x="138.884" y="142.651" xlink:href="#m78701da635"/><use style="fill:#a9a9a9;stroke:#a9a9a9" x="138.884" y="149.124" xlink:href="#m78701da635"/><use style="fill:#a9a9a9;stroke:#a9a9a9" x="165.59" y="141.353" xlink:href="#m78701da635"/><use style="fill:#a9a9a9;stroke:#a9a9a9" x="165.59" y="148.096" xlink:href="#m78701da635"/><use style="fill:#a9a9a9;stroke:#a9a9a9" x="165.59" y="142.74" xlink:href="#m78701da635"/><use style="fill:#a9a9a9;stroke:#a9a9a9" x="165.59" y="141.418" xlink:href="#m78701da635"/><use style="fill:#a9a9a9;stroke:#a9a9a9" x="165.59" y="141.093" xlink:href="#m78701da635"/><use style="fill:#a9a9a9;stroke:#a9a9a9" x="165.59" y="134.544" xlink:href="#m78701da635"/><use style="fill:#a9a9a9;stroke:#a9a9a9" x="165.59" y="143.408" xlink:href="#m78701da635"/><use style="fill:#a9a9a9;stroke:#a9a9a9" x="165.59" y="139.08" xlink:href="#m78701da635"/><use style="fill:#a9a9a9;stroke:#a9a9a9" x="165.59" y="143.37" xlink:href="#m78701da635"/><use style="fill:#a9a9a9;stroke:#a9a9a9" x="165.59" y="149.124" xlink:href="#m78701da635"/><use style="fill:#a9a9a9;stroke:#a9a9a9" x="165.59" y="149.124" xlink:href="#m78701da635"/><use style="fill:#a9a9a9;stroke:#a9a9a9" x="165.59" y="144.308" xlink:href="#m78701da635"/><use style="fill:#a9a9a9;stroke:#a9a9a9" x="165.59" y="149.124" xlink:href="#m78701da635"/><use style="fill:#a9a9a9;stroke:#a9a9a9" x="165.59" y="146.127" xlink:href="#m78701da635"/><use style="fill:#a9a9a9;stroke:#a9a9a9" x="165.59" y="138.127" xlink:href="#m78701da635"/><use style="fill:#a9a9a9;stroke:#a9a9a9" x="165.59" y="137.904" xlink:href="#m78701da635"/><use style="fill:#a9a9a9;stroke:#a9a9a9" x="165.59" y="138.547" xlink:href="#m78701da635"/><use style="fill:#a9a9a9;stroke:#a9a9a9" x="165.59" y="143.73" xlink:href="#m78701da635"/><use style="fill:#a9a9a9;stroke:#a9a9a9" x="184.538" y="141.132" xlink:href="#m78701da635"/><use style="fill:#a9a9a9;stroke:#a9a9a9" x="184.538" y="132.535" xlink:href="#m78701da635"/><use style="fill:#a9a9a9;stroke:#a9a9a9" x="184.538" y="147.231" xlink:href="#m78701da635"/><use style="fill:#a9a9a9;stroke:#a9a9a9" x="184.538" y="141.768" xlink:href="#m78701da635"/><use style="fill:#a9a9a9;stroke:#a9a9a9" x="184.538" y="140.707" xlink:href="#m78701da635"/><use style="fill:#a9a9a9;stroke:#a9a9a9" x="184.538" y="149.124" xlink:href="#m78701da635"/><use style="fill:#a9a9a9;stroke:#a9a9a9" x="184.538" y="118.855" xlink:href="#m78701da635"/><use style="fill:#a9a9a9;stroke:#a9a9a9" x="184.538" y="126.34" xlink:href="#m78701da635"/><use style="fill:#a9a9a9;stroke:#a9a9a9" x="184.538" y="149.124" xlink:href="#m78701da635"/><use style="fill:#a9a9a9;stroke:#a9a9a9" x="184.538" y="132.608" xlink:href="#m78701da635"/><use style="fill:#a9a9a9;stroke:#a9a9a9" x="199.235" y="138.673" xlink:href="#m78701da635"/><use style="fill:#a9a9a9;stroke:#a9a9a9" x="199.235" y="149.124" xlink:href="#m78701da635"/><use style="fill:#a9a9a9;stroke:#a9a9a9" x="199.235" y="136.441" xlink:href="#m78701da635"/><use style="fill:#a9a9a9;stroke:#a9a9a9" x="199.235" y="149.124" xlink:href="#m78701da635"/><use style="fill:#a9a9a9;stroke:#a9a9a9" x="199.235" y="136.012" xlink:href="#m78701da635"/><use style="fill:#a9a9a9;stroke:#a9a9a9" x="199.235" y="138.356" xlink:href="#m78701da635"/><use style="fill:#a9a9a9;stroke:#a9a9a9" x="199.235" y="138.385" xlink:href="#m78701da635"/><use style="fill:#a9a9a9;stroke:#a9a9a9" x="199.235" y="143.017" xlink:href="#m78701da635"/><use style="fill:#a9a9a9;stroke:#a9a9a9" x="199.235" y="149.124" xlink:href="#m78701da635"/><use style="fill:#a9a9a9;stroke:#a9a9a9" x="211.244" y="141.23" xlink:href="#m78701da635"/><use style="fill:#a9a9a9;stroke:#a9a9a9" x="211.244" y="149.124" xlink:href="#m78701da635"/><use style="fill:#a9a9a9;stroke:#a9a9a9" x="211.244" y="144.974" xlink:href="#m78701da635"/><use style="fill:#a9a9a9;stroke:#a9a9a9" x="211.244" y="140.542" xlink:href="#m78701da635"/><use style="fill:#a9a9a9;stroke:#a9a9a9" x="211.244" y="138.442" xlink:href="#m78701da635"/><use style="fill:#a9a9a9;stroke:#a9a9a9" x="211.244" y="138.946" xlink:href="#m78701da635"/><use style="fill:#a9a9a9;stroke:#a9a9a9" x="211.244" y="122.261" xlink:href="#m78701da635"/><use style="fill:#a9a9a9;stroke:#a9a9a9" x="211.244" y="149.124" xlink:href="#m78701da635"/><use style="fill:#a9a9a9;stroke:#a9a9a9" x="211.244" y="142.778" xlink:href="#m78701da635"/><use style="fill:#a9a9a9;stroke:#a9a9a9" x="211.244" y="139.624" xlink:href="#m78701da635"/><use style="fill:#a9a9a9;stroke:#a9a9a9" x="211.244" y="140.027" xlink:href="#m78701da635"/><use style="fill:#a9a9a9;stroke:#a9a9a9" x="211.244" y="141.038" xlink:href="#m78701da635"/><use style="fill:#a9a9a9;stroke:#a9a9a9" x="211.244" y="142.019" xlink:href="#m78701da635"/><use style="fill:#a9a9a9;stroke:#a9a9a9" x="221.397" y="138.547" xlink:href="#m78701da635"/><use style="fill:#a9a9a9;stroke:#a9a9a9" x="221.397" y="136.177" xlink:href="#m78701da635"/><use style="fill:#a9a9a9;stroke:#a9a9a9" x="221.397" y="95.179" xlink:href="#m78701da635"/><use style="fill:#a9a9a9;stroke:#a9a9a9" x="221.397" y="130.95" xlink:href="#m78701da635"/><use style="fill:#a9a9a9;stroke:#a9a9a9" x="221.397" y="140.342" xlink:href="#m78701da635"/><use style="fill:#a9a9a9;stroke:#a9a9a9" x="221.397" y="149.124" xlink:href="#m78701da635"/><use style="fill:#a9a9a9;stroke:#a9a9a9" x="230.192" y="137.7" xlink:href="#m78701da635"/><use style="fill:#a9a9a9;stroke:#a9a9a9" x="230.192" y="142.567" xlink:href="#m78701da635"/><use style="fill:#a9a9a9;stroke:#a9a9a9" x="230.192" y="149.124" xlink:href="#m78701da635"/><use style="fill:#a9a9a9;stroke:#a9a9a9" x="230.192" y="141.495" xlink:href="#m78701da635"/><use style="fill:#a9a9a9;stroke:#a9a9a9" x="230.192" y="138.004" xlink:href="#m78701da635"/><use style="fill:#a9a9a9;stroke:#a9a9a9" x="237.95" y="144.433" xlink:href="#m78701da635"/><use style="fill:#a9a9a9;stroke:#a9a9a9" x="237.95" y="133.526" xlink:href="#m78701da635"/><use style="fill:#a9a9a9;stroke:#a9a9a9" x="237.95" y="149.124" xlink:href="#m78701da635"/><use style="fill:#a9a9a9;stroke:#a9a9a9" x="237.95" y="135.164" xlink:href="#m78701da635"/><use style="fill:#a9a9a9;stroke:#a9a9a9" x="237.95" y="123.452" xlink:href="#m78701da635"/><use style="fill:#a9a9a9;stroke:#a9a9a9" x="237.95" y="136.833" xlink:href="#m78701da635"/><use style="fill:#a9a9a9;stroke:#a9a9a9" x="244.889" y="139.918" xlink:href="#m78701da635"/><use style="fill:#a9a9a9;stroke:#a9a9a9" x="244.889" y="149.124" xlink:href="#m78701da635"/><use style="fill:#a9a9a9;stroke:#a9a9a9" x="244.889" y="143.986" xlink:href="#m78701da635"/><use style="fill:#a9a9a9;stroke:#a9a9a9" x="251.167" y="145.147" xlink:href="#m78701da635"/><use style="fill:#a9a9a9;stroke:#a9a9a9" x="251.167" y="124.512" xlink:href="#m78701da635"/><use style="fill:#a9a9a9;stroke:#a9a9a9" x="256.898" y="141.032" xlink:href="#m78701da635"/><use style="fill:#a9a9a9;stroke:#a9a9a9" x="256.898" y="133.484" xlink:href="#m78701da635"/><use style="fill:#a9a9a9;stroke:#a9a9a9" x="256.898" y="144.808" xlink:href="#m78701da635"/><use style="fill:#a9a9a9;stroke:#a9a9a9" x="267.051" y="130.967" xlink:href="#m78701da635"/><use style="fill:#a9a9a9;stroke:#a9a9a9" x="267.051" y="141.187" xlink:href="#m78701da635"/><use style="fill:#a9a9a9;stroke:#a9a9a9" x="267.051" y="136.715" xlink:href="#m78701da635"/><use style="fill:#a9a9a9;stroke:#a9a9a9" x="267.051" y="141.658" xlink:href="#m78701da635"/><use style="fill:#a9a9a9;stroke:#a9a9a9" x="275.846" y="120.536" xlink:href="#m78701da635"/><use style="fill:#a9a9a9;stroke:#a9a9a9" x="287.165" y="134.996" xlink:href="#m78701da635"/><use style="fill:#a9a9a9;stroke:#a9a9a9" x="287.165" y="133.14" xlink:href="#m78701da635"/><use style="fill:#a9a9a9;stroke:#a9a9a9" x="290.543" y="140.662" xlink:href="#m78701da635"/><use style="fill:#a9a9a9;stroke:#a9a9a9" x="293.757" y="138.725" xlink:href="#m78701da635"/><use style="fill:#a9a9a9;stroke:#a9a9a9" x="296.821" y="133.512" xlink:href="#m78701da635"/><use style="fill:#a9a9a9;stroke:#a9a9a9" x="296.821" y="128.635" xlink:href="#m78701da635"/><use style="fill:#a9a9a9;stroke:#a9a9a9" x="302.552" y="139.28" xlink:href="#m78701da635"/><use style="fill:#a9a9a9;stroke:#a9a9a9" x="305.241" y="144.629" xlink:href="#m78701da635"/><use style="fill:#a9a9a9;stroke:#a9a9a9" x="310.31" y="137.847" xlink:href="#m78701da635"/><use style="fill:#a9a9a9;stroke:#a9a9a9" x="310.31" y="143.232" xlink:href="#m78701da635"/><use style="fill:#a9a9a9;stroke:#a9a9a9" x="362.903" y="139.59" xlink:href="#m78701da635"/></g></g><g id="patch_3"><path d="M 79.746 149.124 L 79.746 20.736" style="fill:none;stroke:#9d9d9d;stroke-linecap:square;stroke-linejoin:miter;stroke-width:.6"/></g><g id="patch_4"><path d="M 396.549 149.124 L 396.549 20.736" style="fill:none;stroke:#9d9d9d;stroke-linecap:square;stroke-linejoin:miter;stroke-width:.6"/></g><g id="patch_5"><path d="M 79.746 149.124 L 396.549 149.124" style="fill:none;stroke:#9d9d9d;stroke-linecap:square;stroke-linejoin:miter;stroke-width:.6"/></g><g id="patch_6"><path d="M 79.746 20.736 L 396.549 20.736" style="fill:none;stroke:#9d9d9d;stroke-linecap:square;stroke-linejoin:miter;stroke-width:.6"/></g><g id="legend_1"><g id="line2d_11"><path d="M 95.586 33.7544 L 130.786 33.7544" style="fill:none;stroke:#82cafc;stroke-linecap:round;stroke-width:2"/></g><g id="text_9"><g style="fill:#262626" transform="translate(144.866 39.9144)scale(0.176 -0.176)"><defs><path id="ArialMT-104" d="M 6.59375 0 L 6.59375 71.578125 L 15.375 71.578125 L 15.375 45.90625 Q 21.53125 53.03125 30.90625 53.03125 Q 36.671875 53.03125 40.921875 50.75 Q 45.171875 48.484375 47 44.484375 Q 48.828125 40.484375 48.828125 32.859375 L 48.828125 0 L 40.046875 0 L 40.046875 32.859375 Q 40.046875 39.453125 37.1875 42.453125 Q 34.328125 45.453125 29.109375 45.453125 Q 25.203125 45.453125 21.75 43.421875 Q 18.3125 41.40625 16.84375 37.9375 Q 15.375 34.46875 15.375 28.375 L 15.375 0 z"/></defs><use xlink:href="#ArialMT-104"/><use x="55.615" xlink:href="#ArialMT-117"/><use x="111.23" xlink:href="#ArialMT-109"/><use x="194.531" xlink:href="#ArialMT-97"/><use x="250.146" xlink:href="#ArialMT-110"/></g></g><g id="line2d_13"><path d="M 271.7595 33.7544 L 306.9595 33.7544" style="fill:none;stroke:#828282;stroke-linecap:round;stroke-width:2"/></g><g id="text_10"><g style="fill:#262626" transform="translate(321.0395 39.9144)scale(0.176 -0.176)"><use xlink:href="#ArialMT-114"/><use x="33.301" xlink:href="#ArialMT-97"/><use x="88.916" xlink:href="#ArialMT-110"/><use x="144.531" xlink:href="#ArialMT-100"/><use x="200.146" xlink:href="#ArialMT-111"/><use x="255.762" xlink:href="#ArialMT-109"/></g></g></g></g></g><defs><clipPath id="p7acbf3957d"><rect width="316.803" height="128.388" x="79.746" y="20.736"/></clipPath></defs></svg>